# xmcd
#
# Track frame offsets:
#	150
#	16212
#	35472
#	52302
#	68335
#	89210
#
# Disc length: 1432 seconds
#
# Revision: 2
# Processed by: cddbd v1.4PL0 Copyright (c) Steve Scherf et al.
# Submitted via: dBpowerAMP V4.0
#
DISCID=4c059606
DTITLE=謝霆鋒 - 無聲彷有聲
DYEAR=1900
DGENRE=blues
TTITLE0=無聲彷有聲
TTITLE1=不要刻意改變
TTITLE2=沒有外套的 Angelia
TTITLE3=庸人
TTITLE4=無端端一個人
TTITLE5=壞習慣 Acoustic Version
EXTD=
EXTT0=
EXTT1=
EXTT2=
EXTT3=
EXTT4=
EXTT5=
PLAYORDER=
